<svg xmlns="http://www.w3.org/2000/svg" width="82" height="82" viewBox="0 0 82 82">
    <g fill="none" fill-rule="evenodd">
        <circle cx="41" cy="41" r="41" fill="#37B7E8"/>
        <g fill="#FFF" fill-rule="nonzero">
            <path d="M62 39.514V38c0-11.58-9.42-21-21-21s-21 9.42-21 21v1.514a7.485 7.485 0 0 0-3 5.986c0 4.136 3.364 7.5 7.5 7.5H26V38h-1.5a7.45 7.45 0 0 0-2.5.438V38c0-10.477 8.523-19 19-19s19 8.523 19 19v.438A7.45 7.45 0 0 0 57.5 38H56v15h1.5c.514 0 1.015-.052 1.5-.151V59c0 1.103-.897 2-2 2H45.816A2.995 2.995 0 0 0 43 59h-3c-1.654 0-3 1.346-3 3s1.346 3 3 3h3a2.995 2.995 0 0 0 2.816-2H57c2.206 0 4-1.794 4-4v-6.872a7.504 7.504 0 0 0 4-6.628 7.485 7.485 0 0 0-3-5.986zm-38 .508v10.956c-2.8-.254-5-2.614-5-5.478s2.2-5.224 5-5.478zM43 63h-3c-.551 0-1-.449-1-1 0-.551.449-1 1-1h3c.551 0 1 .449 1 1 0 .551-.449 1-1 1zm15-12.022V40.022c2.8.254 5 2.614 5 5.478s-2.2 5.224-5 5.478z"/>
            <path d="M54 38.413v-4.826l-3.03-.504a10.26 10.26 0 0 0-.86-2.067l1.788-2.502-3.41-3.412-2.504 1.788a10.29 10.29 0 0 0-2.067-.86L43.413 23h-4.825l-.505 3.03a10.29 10.29 0 0 0-2.066.86l-2.504-1.788-3.41 3.412 1.787 2.502a10.29 10.29 0 0 0-.86 2.067l-3.03.504v4.826l3.03.504c.21.717.498 1.408.86 2.067l-1.788 2.502 3.411 3.412 2.503-1.788c.659.362 1.35.65 2.067.86l.505 3.03h4.825l.504-3.03c.717-.21 1.409-.498 2.067-.86l2.503 1.788 3.411-3.412-1.787-2.502c.362-.659.649-1.35.858-2.067L54 38.413zm-4.667-1.25l-.146.66a8.29 8.29 0 0 1-1.112 2.675l-.363.569 1.574 2.204-1.015 1.015-2.203-1.574-.57.363a8.31 8.31 0 0 1-2.676 1.112l-.66.146L41.719 47h-1.436l-.444-2.667-.66-.146a8.31 8.31 0 0 1-2.676-1.112l-.57-.363-2.202 1.574-1.016-1.015 1.574-2.204-.363-.57a8.302 8.302 0 0 1-1.112-2.675l-.146-.66L30 36.719v-1.436l2.667-.445.146-.659a8.304 8.304 0 0 1 1.112-2.676l.363-.569-1.574-2.204 1.016-1.015 2.203 1.574.569-.363a8.31 8.31 0 0 1 2.677-1.112l.659-.146.444-2.667h1.436l.445 2.667.659.146a8.31 8.31 0 0 1 2.677 1.112l.569.363 2.203-1.574 1.015 1.015-1.574 2.204.363.57a8.288 8.288 0 0 1 1.112 2.675l.146.66 2.667.444v1.436l-2.667.445z"/>
            <path d="M41 30c-3.309 0-6 2.692-6 6s2.691 6 6 6c3.308 0 6-2.692 6-6s-2.692-6-6-6zm0 9.893A3.897 3.897 0 0 1 37.107 36 3.897 3.897 0 0 1 41 32.107 3.897 3.897 0 0 1 44.893 36 3.897 3.897 0 0 1 41 39.893z"/>
        </g>
    </g>
</svg>
