<svg xmlns="http://www.w3.org/2000/svg" width="82" height="82" viewBox="0 0 82 82">
    <g fill="none" fill-rule="evenodd">
        <circle cx="41" cy="41" r="41" fill="#37B7E8"/>
        <g fill="#FFF" fill-rule="nonzero">
            <path d="M55 54h-2a1 1 0 1 1 0-2h2c2.758 0 5-2.242 5-5s-2.242-5-5-5h-2a1 1 0 1 1 0-2h2c3.86 0 7 3.14 7 7s-3.14 7-7 7z"/>
            <path d="M49.113 64H31.025C28.255 64 26 61.752 26 58.987V36.928c0-.554.45-1.002 1.005-1.002h19.508l4.543-8.145a3.972 3.972 0 0 1-.873-1.285c-.426-1.012-.4-2.184.07-3.3.248-.585.658-1.101 1.09-1.645 1.133-1.427 1.772-2.383.71-3.997a1.003 1.003 0 0 1 1.076-1.525c2.909.702 4.968 2.748 5.649 5.613.612 2.583-.069 5.242-1.698 6.617a3.89 3.89 0 0 1-1.94.894l-2.563 6.773h.556c.555 0 1.005.448 1.005 1.002v22.059c0 2.765-2.253 5.013-5.025 5.013zM28.01 37.93v21.057a3.015 3.015 0 0 0 3.015 3.008h18.088a3.015 3.015 0 0 0 3.015-3.008V37.93h-5.005c-.02-.002-.028-.001-.041 0H28.01zm20.803-2.004h1.615l2.636-6.964a5.487 5.487 0 0 1-.306-.108l-3.945 7.072zm4.167-9.179c.114.068.237.128.367.183.973.407 1.794.338 2.436-.202 1.03-.871 1.468-2.816 1.038-4.624-.33-1.393-1.107-2.521-2.216-3.276.114 1.7-.922 3.007-1.686 3.967-.345.436-.673.846-.813 1.18-.263.624-.288 1.228-.07 1.747.149.355.406.663.757.907a1 1 0 0 1 .187.118z"/>
            <path d="M35 38h-6a1 1 0 0 1-.894-.553l-2.993-5.983a.984.984 0 0 1-.102-.318l-.997-5.98a.998.998 0 0 1 .424-.99.988.988 0 0 1 1.077-.032l4.98 2.988c.112.065.215.152.298.26l.002.003s-.002 0 .003.003l.002.003s0 .002.002.003c0 0 0 .002.002.003a1.017 1.017 0 0 1 .078.123l4.992 8.985A1 1 0 0 1 35 38zm-5.382-2h3.683l-3.618-6.51-2.415 1.81 2.35 4.7zm-3.275-9.027l.373 2.241 1.494-1.12-1.867-1.12z"/>
            <path d="M45 38h-8a1 1 0 0 1-1-1V17a1 1 0 0 1 1-1h8a1 1 0 0 1 1 1v20a1 1 0 0 1-1 1zm-7-2h6v-2h-1a1 1 0 1 1 0-2h1v-2h-3a1 1 0 1 1 0-2h3v-2h-1a1 1 0 1 1 0-2h1v-2h-3a1 1 0 1 1 0-2h3v-2h-6v18z"/>
        </g>
    </g>
</svg>
