<svg xmlns="http://www.w3.org/2000/svg" width="82" height="82" viewBox="0 0 82 82">
    <g fill="none" fill-rule="evenodd">
        <circle cx="41" cy="41" r="41" fill="#37B7E8"/>
        <g fill="#FFF" fill-rule="nonzero">
            <path d="M32.306 62h18.388C52.515 62 54 60.528 54 58.722V24.278C54 22.472 52.515 21 50.694 21H32.306C30.485 21 29 22.472 29 24.278v34.444C29 60.528 30.485 62 32.306 62zm19.397-9.565H31.288v-23.87h20.415v23.87zm-1.018 7.296h-18.38c-.56 0-1.017-.453-1.017-1.009v-4.018h20.415v4.018c0 .556-.458 1.01-1.018 1.01zM32.305 23.27h18.39c.56 0 1.017.453 1.017 1.009v2.018H31.288v-2.018c0-.556.458-1.01 1.018-1.01z"/>
            <path d="M43.827 56h-4.654c-.648 0-1.173.447-1.173 1 0 .553.525 1 1.173 1h4.654c.648 0 1.173-.447 1.173-1 0-.553-.534-1-1.173-1zM60.25 55.695H57.1c-.608 0-1.1.516-1.1 1.153S56.492 58 57.1 58h3.15c2.068 0 3.75-1.761 3.75-3.926V27.926C64 25.76 62.318 24 60.25 24H57.1c-.608 0-1.1.515-1.1 1.152 0 .637.492 1.153 1.1 1.153h3.15c.86 0 1.558.73 1.558 1.63v26.149c0 .88-.698 1.611-1.557 1.611zM22.75 58h3.15c.608 0 1.1-.515 1.1-1.152 0-.637-.492-1.153-1.1-1.153h-3.15c-.86 0-1.558-.73-1.558-1.63v-26.13c0-.9.698-1.63 1.557-1.63h3.15c.609 0 1.101-.516 1.101-1.153S26.508 24 25.9 24h-3.15C20.681 24 19 25.761 19 27.926v26.148C19 56.24 20.682 58 22.75 58z"/>
        </g>
    </g>
</svg>
