<svg xmlns="http://www.w3.org/2000/svg" width="82" height="82" viewBox="0 0 82 82">
    <g fill="none" fill-rule="evenodd">
        <circle cx="41" cy="41" r="41" fill="#37B7E8"/>
        <g fill="#FFF" transform="translate(17 27)">
            <path stroke="#FFF" stroke-width=".8" d="M12.484.879a.831.831 0 0 1 .61-.254c.237 0 .44.085.61.254.067.05.118.11.151.178.034.067.06.14.077.215.017.077.025.153.025.229a.887.887 0 0 1-.102.419.796.796 0 0 1-.152.203L2.125 13.701l11.426 11.426a.848.848 0 0 1 .216.38.839.839 0 0 1 0 .458.848.848 0 0 1-.838.635.846.846 0 0 1-.622-.254L.27 14.31a.831.831 0 0 1-.253-.61c0-.237.084-.44.253-.61L12.484.88zM34.49.879a.831.831 0 0 0-.61-.254.831.831 0 0 0-.609.254.504.504 0 0 0-.152.178 1.05 1.05 0 0 0-.102.444.887.887 0 0 0 .102.419.796.796 0 0 0 .152.203L44.85 13.701 33.424 25.127a.848.848 0 0 0-.216.38.839.839 0 0 0 0 .458.848.848 0 0 0 .838.635.846.846 0 0 0 .622-.254L46.703 14.31a.831.831 0 0 0 .254-.61.831.831 0 0 0-.254-.61L34.49.88z"/>
            <circle cx="33" cy="14" r="2"/>
            <circle cx="24" cy="14" r="2"/>
            <circle cx="15" cy="14" r="2"/>
        </g>
    </g>
</svg>
