<svg xmlns="http://www.w3.org/2000/svg" width="121" height="26" viewBox="0 0 121 26">
    <defs>
        <linearGradient id="a" x1="43.854%" x2="4.314%" y1="16.635%" y2="94.247%">
            <stop offset="0%" stop-color="#E7474D"/>
            <stop offset="100%" stop-color="#009AFC"/>
        </linearGradient>
    </defs>
    <g fill="none" fill-rule="evenodd">
        <path fill="url(#a)" fill-rule="nonzero" d="M19.495 22.416l-1.342-2.307 3.539-6.08a1.167 1.167 0 0 1 1.577-.404c.549.314.742 1.007.436 1.557l-4.21 7.234zM15.45.152a1.146 1.146 0 0 1 .426 1.576L2.158 25.303a1.167 1.167 0 0 1-1.577.404 1.149 1.149 0 0 1-.435-1.558L13.866.575a1.167 1.167 0 0 1 1.583-.423zm1.363 17.65l-1.342-2.307 3.514-6.038c.203-.365.59-.592 1.01-.595.42-.002.809.22 1.017.583.208.362.202.808-.015 1.165l-4.184 7.192zm11.607 4.655a1.146 1.146 0 0 1 .424 1.576l-.735 1.265c-.204.365-.59.592-1.01.595-.42.002-.81-.22-1.017-.583a1.146 1.146 0 0 1 .014-1.166l.736-1.265a1.17 1.17 0 0 1 1.588-.423zm-2.57-4.426c.552.323.736 1.028.413 1.576l-3.294 5.677c-.313.537-.997.731-1.55.44l-.615-1.059c.007-.188.06-.371.155-.534l3.302-5.677a1.17 1.17 0 0 1 1.588-.423zm-7.83-13.453c.556.318.746 1.023.426 1.574L7.305 25.3a1.167 1.167 0 0 1-1.577.404 1.149 1.149 0 0 1-.436-1.558L16.431 5.001a1.17 1.17 0 0 1 1.588-.423z"/>
        <path fill="#1F1F28" d="M49.925.702l8.43 23.968c.074.222.11.419.11.591 0 .493-.593.739-1.782.739h-1.15c-1.065 0-1.684-.234-1.857-.702l-1.746-5.06h-9.543l-1.708 5.06c-.173.468-.718.702-1.634.702h-1.003C36.681 26 36 25.754 36 25.261c0-.074.05-.283.149-.627L44.54.702C44.714.234 45.345 0 46.435 0h1.633c1.065 0 1.684.234 1.857.702zM47.14 5.614c-.025.123-.08.43-.167.923a6.513 6.513 0 0 1-.39 1.366l-2.785 8.2h6.758l-2.748-8.2c-.222-.615-.396-1.378-.52-2.29h-.148zm28.931-3.915c1.733 1.083 2.6 3.14 2.6 6.167 0 2.118-.502 3.761-1.505 4.93-1.002 1.17-2.129 1.958-3.379 2.365-1.25.406-2.37.609-3.36.609h-4.605v9.196c0 .69-.656 1.034-1.968 1.034h-.891c-1.312 0-1.968-.345-1.968-1.034V1.403c0-.467.105-.806.315-1.015.21-.21.551-.314 1.022-.314h7.723c2.278 0 4.283.542 6.016 1.625zM65.822 4.173v7.46h4.196c.966 0 1.826-.276 2.581-.83.755-.554 1.133-1.533 1.133-2.937 0-1.354-.384-2.308-1.152-2.862-.767-.554-1.683-.83-2.747-.83h-4.01zM96.81.443c.161.246.241.653.241 1.219v.923c0 .567-.08.973-.24 1.219-.162.246-.416.37-.762.37H86.17v6.462h8.838c.347 0 .6.123.761.37.161.246.242.652.242 1.218v.924c0 .566-.08.972-.242 1.218-.16.247-.414.37-.76.37H86.17v7.09h9.915c.347 0 .6.124.761.37.161.246.242.652.242 1.219v.923c0 .566-.08.973-.242 1.219-.16.246-.414.37-.761.37H82.718c-.47 0-.817-.106-1.04-.315-.223-.21-.334-.548-.334-1.015V1.403c0-.467.111-.806.334-1.015.223-.21.57-.314 1.04-.314h13.33c.347 0 .601.123.762.37zm23.633.222c0 .197-.124.48-.371.85l-7.167 10.894 7.76 12.077c.224.32.335.603.335.85 0 .442-.706.664-2.117.664h-1.114c-1.089 0-1.757-.222-2.005-.665l-5.644-8.716-5.756 8.753c-.173.246-.42.413-.742.499-.322.086-.756.129-1.3.129h-1.003c-1.41 0-2.116-.222-2.116-.665 0-.221.123-.505.371-.85l7.872-12.039-7.018-10.932c-.223-.344-.334-.628-.334-.85 0-.442.705-.664 2.116-.664h1.152c1.089 0 1.757.222 2.005.665l4.864 7.608 5.05-7.645c.174-.246.421-.413.743-.499.322-.086.755-.129 1.3-.129h1.002c1.411 0 2.117.222 2.117.665z"/>
    </g>
</svg>
