<?xml version="1.0" encoding="UTF-8"?>
<svg width="340px" height="113px" viewBox="0 0 340 113" version="1.1" xmlns="http://www.w3.org/2000/svg" xmlns:xlink="http://www.w3.org/1999/xlink">
    <!-- Generator: Sketch 46 (44423) - http://www.bohemiancoding.com/sketch -->
    <title>Logo</title>
    <desc>Created with Sketch.</desc>
    <defs>
        <path d="M-1.42108547e-14,6.15921981 L5.95811967,0.0162090438 L12.690494,0.0162090438 L12.7067948,56.3835521 L-1.42108547e-14,56.2714547 L-1.42108547e-14,6.15921981 Z M26.4433536,0.0162090438 L39.1559375,7.10542736e-15 L57.7749838,27.9059149 L76.7037731,0.0129368074 L89.4202895,0.00714293216 L93.965618,56.3170249 L81.5079775,56.3170249 L78.3652207,20.671952 L62.227033,44.1552746 L53.3374296,44.1384369 L37.458598,20.7858442 L34.3602079,56.3507003 L21.9413548,56.3170249 L26.4433536,0.0162090438 Z M133.897397,43.8703133 C132.494286,43.8703133 115.396796,44.0532626 115.396796,44.0532626 L115.396796,56.4192806 L102.954677,56.4192806 L102.954677,0.0893330097 C102.954677,0.0893330097 108.430514,0.0943339538 110.860735,0.0893330097 C121.639892,0.0671514996 132.965174,0.133971451 133.897397,0.133971451 C145.972742,0.133971451 155.761744,9.92468507 155.761744,22.0021424 C155.761744,34.0795997 145.972742,43.8703133 133.897397,43.8703133 Z M115.568723,12.7362415 L115.568723,31.460058 L133.910143,31.460058 C139.076816,31.460058 143.268818,27.2729331 143.268818,22.1078529 L143.268818,22.0016303 C143.268818,16.9351863 139.078796,12.7362415 133.910143,12.7362415 L115.568723,12.7362415 Z M176.697145,0.0498844517 L191.47341,0.0498844517 L216.397911,56.4231762 L202.683134,56.4231762 L197.192484,44.1048128 L171.064729,44.0206756 L165.562427,56.500356 L151.525764,56.500356 L176.697145,0.0498844517 Z M176.499156,31.5017115 L191.564847,31.5185492 L184.039332,14.4776392 L176.499156,31.5017115 Z" id="path-1"></path>
    </defs>
    <g id="Logo" stroke="none" stroke-width="1" fill="none" fill-rule="evenodd">
        <g id="1" transform="translate(-13.000000, -112.000000)">
            <g id="Logo" transform="translate(13.000000, 112.000000)">
                <g id="Group">
                    <path d="M48.6961326,56.1878453 L0.0360311796,84.281768 C0.0360311796,84.281768 3.78188753,70.2348066 3.78188753,56.1878453 C3.78188753,42.140884 0.0360311796,28.0939227 0.0360311796,28.0939227 L48.6961326,56.1878453 Z" id="Polygon-2" fill="#367F9C"></path>
                    <path d="M48.6961326,-7.10542736e-15 L48.6961326,56.1878453 L0.0360311796,28.0939227 C0.0360311796,28.0939227 14.1363106,24.2784649 26.2390101,17.2909681 C38.3417095,10.3034713 48.6961326,-7.10542736e-15 48.6961326,-7.10542736e-15 Z" id="Polygon-2" fill="#45494B"></path>
                    <path d="M48.6961326,112.375691 C48.6961326,112.375691 38.4663613,102.144187 26.2390101,95.0847225 C14.0116588,88.025258 0.0360311796,84.281768 0.0360311796,84.281768 L48.6961326,56.1878453 L48.6961326,112.375691 Z" id="Polygon-2" fill="#1EB5ED"></path>
                    <path d="M48.6961326,0 C48.6961326,0 58.9259039,10.2315036 71.1532551,17.2909681 C83.3806064,24.3504326 97.356234,28.0939227 97.356234,28.0939227 L48.6961326,56.1878453 L48.6961326,0 Z" id="Polygon-2" fill="#1EB5ED"></path>
                    <path d="M97.356234,28.0939227 C97.356234,28.0939227 93.6103777,42.140884 93.6103777,56.1878453 C93.6103777,70.2348066 97.356234,84.281768 97.356234,84.281768 L48.6961326,56.1878453 L97.356234,28.0939227 Z" id="Polygon-2" fill="#367F9C"></path>
                    <path d="M97.356234,84.281768 C97.356234,84.281768 83.2559546,88.0972257 71.1532551,95.0847225 C59.0505557,102.072219 48.6961326,112.375691 48.6961326,112.375691 L48.6961326,56.1878453 L97.356234,84.281768 Z" id="Polygon-2" fill="#45494B"></path>
                </g>
                <g id="Group-5" transform="translate(123.030029, 28.000000)">
                    <g id="Group-6">
                        <mask id="mask-2" fill="white">
                            <use xlink:href="#path-1"></use>
                        </mask>
                        <use id="IMPA" fill="#1EB5ED" xlink:href="#path-1"></use>
                        <rect id="Rectangle" fill="#327F9C" mask="url(#mask-2)" x="0" y="31.4306938" width="216.899994" height="25.0037489"></rect>
                    </g>
                </g>
                <path d="M132.487166,104.406306 C131.791519,104.933311 130.927231,105.228434 130.020783,105.228434 C128.924612,105.228434 127.912763,104.80683 127.132795,104.026862 C126.352828,103.246895 125.931224,102.235045 125.931224,101.138875 C125.931224,100.042705 126.352828,99.0097748 127.132795,98.2298074 C127.912763,97.44984 128.924612,97.028236 130.020783,97.028236 C130.927231,97.028236 131.791519,97.3233588 132.487166,97.8503638 L134.595186,95.763424 C133.351454,94.7094141 131.770439,94.0770081 130.020783,94.0770081 C126.142026,94.0770081 122.979996,97.239038 122.979996,101.138875 C122.979996,105.017632 126.142026,108.179662 130.020783,108.179662 C131.770439,108.179662 133.351454,107.547256 134.595186,106.514326 L132.487166,104.406306 Z M138.974597,99.0097748 L138.974597,97.3865994 L136.023369,97.3865994 L136.023369,108.242902 L138.974597,108.242902 L138.974597,103.436617 C138.974597,102.045324 140.365891,100.211346 142.642552,100.211346 L142.642552,97.1968776 C140.450211,97.1968776 139.459442,97.660642 138.974597,99.0097748 Z M153.936269,102.783131 C153.915189,99.7897422 151.469886,97.3655192 148.476498,97.3865994 C145.483109,97.4076796 143.058886,99.8529828 143.079966,102.846371 C143.101047,105.83976 145.54635,108.263983 148.539738,108.242902 C150.900721,108.221822 152.102292,107.231053 153.240623,105.481396 L150.500197,104.617108 L150.415876,104.701429 C149.909951,105.207354 149.235385,105.481396 148.518658,105.502476 C147.823011,105.502476 147.148445,105.228434 146.62144,104.722509 C146.305237,104.406306 146.157676,104.216584 146.010114,103.79498 L153.936269,103.81606 C153.95735,103.668499 153.936269,102.930692 153.936269,102.783131 Z M148.497578,100.148106 C149.214305,100.148106 149.888871,100.422148 150.394796,100.906993 C150.647758,101.181035 150.85856,101.476158 150.985041,101.813441 L146.031194,101.813441 C146.157676,101.476158 146.368478,101.181035 146.60036,100.928073 C147.106285,100.422148 147.780851,100.148106 148.497578,100.148106 Z M162.995485,97.344439 L162.995485,98.5460104 C162.341999,97.7238826 161.224749,97.344439 160.191819,97.344439 C157.19843,97.3655192 154.774207,99.8108224 154.795288,102.804211 C154.816368,105.797599 157.261671,108.221822 160.255059,108.200742 C161.245829,108.200742 162.341999,107.863459 162.995485,107.020251 L162.995485,108.242902 L165.946713,108.242902 L165.946713,97.344439 L162.995485,97.344439 Z M162.110117,104.659268 C161.625272,105.165193 160.950706,105.439236 160.233979,105.460316 C159.517252,105.460316 158.842686,105.186273 158.336761,104.680349 C157.830836,104.174424 157.535714,103.499857 157.535714,102.783131 C157.535714,102.066404 157.809756,101.391837 158.315681,100.885913 C158.821606,100.379988 159.496172,100.105945 160.212899,100.105945 C160.908546,100.084865 161.583112,100.358908 162.089037,100.864832 C162.616042,101.370757 162.890084,102.045324 162.890084,102.76205 C162.890084,103.478777 162.616042,104.153344 162.110117,104.659268 Z M175.427533,97.3865994 L173.00331,97.3865994 L173.00331,93.5921635 L170.052082,93.5921635 L170.052082,97.3865994 L167.606779,97.3865994 L167.606779,100.337827 L170.052082,100.337827 L170.052082,108.242902 L173.00331,108.242902 L173.00331,100.337827 L175.427533,100.337827 L175.427533,97.3865994 Z M180.017747,93.5500031 L177.087599,93.5500031 L177.087599,96.0374666 L180.017747,96.0374666 L180.017747,93.5500031 Z M180.038827,97.4076796 L177.087599,97.4076796 L177.087599,108.242902 L180.038827,108.242902 L180.038827,97.4076796 Z M190.826619,97.3865994 L188.086193,103.457697 L185.134965,97.3865994 L181.698893,97.3865994 L186.968943,108.242902 L189.203444,108.242902 L194.241612,97.3865994 L190.826619,97.3865994 Z M204.62888,102.783131 C204.6078,99.7897422 202.162497,97.3655192 199.169109,97.3865994 C196.17572,97.4076796 193.751497,99.8529828 193.772577,102.846371 C193.793658,105.83976 196.238961,108.263983 199.232349,108.242902 C201.593332,108.221822 202.794903,107.231053 203.933234,105.481396 L201.192808,104.617108 L201.108487,104.701429 C200.602562,105.207354 199.927996,105.481396 199.211269,105.502476 C198.515622,105.502476 197.841056,105.228434 197.314051,104.722509 C196.997848,104.406306 196.850287,104.216584 196.702725,103.79498 L204.62888,103.81606 C204.649961,103.668499 204.62888,102.930692 204.62888,102.783131 Z M199.190189,100.148106 C199.906916,100.148106 200.581482,100.422148 201.087407,100.906993 C201.340369,101.181035 201.551171,101.476158 201.677652,101.813441 L196.723805,101.813441 C196.850287,101.476158 197.061089,101.181035 197.292971,100.928073 C197.798896,100.422148 198.473462,100.148106 199.190189,100.148106 Z M216.971337,94.6250933 L211.764528,94.6250933 L211.764528,108.327223 L216.971337,108.327223 C220.744693,108.327223 223.822402,105.249514 223.822402,101.476158 C223.822402,97.6817222 220.744693,94.6250933 216.971337,94.6250933 Z M219.585282,104.090103 C218.889636,104.78575 217.962107,105.165193 216.971337,105.165193 L215.053039,105.165193 L215.053039,97.766043 L216.950257,97.766043 C217.941027,97.766043 218.889636,98.1454866 219.585282,98.8411332 C220.280929,99.55786 220.660372,100.485389 220.660372,101.476158 C220.660372,102.466928 220.280929,103.394456 219.585282,104.090103 Z M235.811766,102.783131 C235.790686,99.7897422 233.345383,97.3655192 230.351994,97.3865994 C227.358606,97.4076796 224.934383,99.8529828 224.955463,102.846371 C224.976543,105.83976 227.421847,108.263983 230.415235,108.242902 C232.776217,108.221822 233.977789,107.231053 235.11612,105.481396 L232.375694,104.617108 L232.291373,104.701429 C231.785448,105.207354 231.110882,105.481396 230.394155,105.502476 C229.698508,105.502476 229.023942,105.228434 228.496937,104.722509 C228.180734,104.406306 228.033172,104.216584 227.885611,103.79498 L235.811766,103.81606 C235.832846,103.668499 235.811766,102.930692 235.811766,102.783131 Z M230.373075,100.148106 C231.089801,100.148106 231.764368,100.422148 232.270293,100.906993 C232.523255,101.181035 232.734057,101.476158 232.860538,101.813441 L227.906691,101.813441 C228.033172,101.476158 228.243974,101.181035 228.475857,100.928073 C228.981781,100.422148 229.656348,100.148106 230.373075,100.148106 Z M244.702341,97.3865994 L241.961915,103.457697 L239.010687,97.3865994 L235.574614,97.3865994 L240.844664,108.242902 L243.079165,108.242902 L248.117333,97.3865994 L244.702341,97.3865994 Z M258.504602,102.783131 C258.483521,99.7897422 256.038218,97.3655192 253.04483,97.3865994 C250.051441,97.4076796 247.627218,99.8529828 247.648299,102.846371 C247.669379,105.83976 250.114682,108.263983 253.10807,108.242902 C255.469053,108.221822 256.670624,107.231053 257.808955,105.481396 L255.068529,104.617108 L254.984208,104.701429 C254.478283,105.207354 253.803717,105.481396 253.08699,105.502476 C252.391344,105.502476 251.716777,105.228434 251.189772,104.722509 C250.873569,104.406306 250.726008,104.216584 250.578446,103.79498 L258.504602,103.81606 C258.525682,103.668499 258.504602,102.930692 258.504602,102.783131 Z M253.06591,100.148106 C253.782637,100.148106 254.457203,100.422148 254.963128,100.906993 C255.21609,101.181035 255.426892,101.476158 255.553374,101.813441 L250.599527,101.813441 C250.726008,101.476158 250.93681,101.181035 251.168692,100.928073 C251.674617,100.422148 252.349183,100.148106 253.06591,100.148106 Z M262.715372,93.5921635 L259.764144,93.5921635 L259.764144,108.242902 L262.715372,108.242902 L262.715372,93.5921635 Z M269.371445,97.3865994 C266.356976,97.4076796 263.953833,99.8529828 263.974913,102.846371 C263.974913,105.83976 266.420217,108.263983 269.434685,108.242902 C272.428074,108.221822 274.831216,105.776519 274.810136,102.783131 C274.810136,99.7897422 272.364833,97.3655192 269.371445,97.3865994 Z M271.289743,104.701429 C270.804898,105.207354 270.130332,105.481396 269.413605,105.502476 C268.696878,105.502476 268.022312,105.228434 267.516387,104.722509 C267.010462,104.216584 266.715339,103.542018 266.715339,102.825291 C266.715339,102.108564 266.989382,101.455078 267.495307,100.928073 C268.001232,100.422148 268.654718,100.148106 269.371445,100.148106 C270.088171,100.148106 270.762738,100.422148 271.268663,100.906993 C271.774587,101.412918 272.06971,102.087484 272.06971,102.804211 C272.06971,103.520938 271.795668,104.195504 271.289743,104.701429 Z M281.719172,97.3865994 C280.728402,97.4076796 279.590072,97.8082034 279.020906,98.5460104 L279.020906,97.4076796 L276.069678,97.4076796 L276.069678,112.290301 L279.020906,112.290301 L279.020906,107.083491 C279.716553,107.94778 280.770563,108.242902 281.782412,108.242902 C284.775801,108.221822 287.200024,105.776519 287.178944,102.783131 C287.157863,99.7897422 284.71256,97.3655192 281.719172,97.3865994 Z M283.65855,104.701429 C283.152625,105.207354 282.478059,105.481396 281.761332,105.502476 C281.044605,105.502476 280.370039,105.228434 279.864114,104.722509 C279.358189,104.216584 279.084147,103.542018 279.063067,102.825291 C279.063067,102.108564 279.337109,101.455078 279.843034,100.928073 C280.348959,100.422148 281.023525,100.148106 281.740252,100.148106 C282.456979,100.148106 283.131545,100.422148 283.63747,100.906993 C284.143395,101.412918 284.417437,102.087484 284.417437,102.804211 C284.438518,103.520938 284.164475,104.195504 283.65855,104.701429 Z M301.824413,97.3655192 C300.875804,97.3655192 299.885034,97.5763212 298.894265,98.3773688 L298.008896,99.1994966 C297.102448,98.0611658 295.711155,97.344439 294.15122,97.3655192 C293.181531,97.3655192 292.317242,97.5974014 291.495115,98.4827698 L291.495115,97.344439 L288.543887,97.344439 L288.543887,108.242902 L291.495115,108.242902 L291.495115,102.804211 C291.495115,102.087484 291.790237,100.105945 293.961498,100.105945 C295.943037,100.105945 296.427881,102.066404 296.427881,102.76205 L296.427881,108.242902 L299.189388,108.242902 L299.189388,102.804211 C299.189388,102.087484 299.48451,100.105945 301.634691,100.105945 C303.63731,100.105945 304.101074,102.066404 304.122154,102.76205 L304.122154,108.242902 L306.86258,108.242902 L306.86258,102.572329 C306.86258,99.1151758 304.628079,97.344439 301.824413,97.3655192 Z M318.978425,102.783131 C318.957345,99.7897422 316.512042,97.3655192 313.518654,97.3865994 C310.525265,97.4076796 308.101042,99.8529828 308.122122,102.846371 C308.143203,105.83976 310.588506,108.263983 313.581894,108.242902 C315.942876,108.221822 317.144448,107.231053 318.282779,105.481396 L315.542353,104.617108 L315.458032,104.701429 C314.952107,105.207354 314.277541,105.481396 313.560814,105.502476 C312.865167,105.502476 312.190601,105.228434 311.663596,104.722509 C311.347393,104.406306 311.199832,104.216584 311.05227,103.79498 L318.978425,103.81606 C318.999505,103.668499 318.978425,102.930692 318.978425,102.783131 Z M313.539734,100.148106 C314.256461,100.148106 314.931027,100.422148 315.436952,100.906993 C315.689914,101.181035 315.900716,101.476158 316.027197,101.813441 L311.07335,101.813441 C311.199832,101.476158 311.410634,101.181035 311.642516,100.928073 C312.148441,100.422148 312.823007,100.148106 313.539734,100.148106 Z M325.634498,97.4287598 C324.664809,97.5130806 323.863762,97.7028024 322.978393,98.7568124 L322.978393,97.344439 L320.027165,97.344439 L320.027165,108.242902 L322.978393,108.242902 L322.978393,102.888532 L322.999473,102.888532 L322.999473,102.867451 C322.978393,102.150725 323.252436,101.476158 323.758361,100.970233 C324.264285,100.464309 324.938852,100.190266 325.655579,100.169186 C326.372305,100.169186 327.046872,100.443228 327.552797,100.949153 C328.058721,101.455078 328.332764,102.129644 328.332764,102.846371 L328.332764,102.888532 L328.353844,102.888532 L328.353844,108.242902 L331.09427,108.242902 L331.09427,102.825291 C331.09427,99.0940956 328.606807,97.1757974 325.634498,97.4287598 Z M339.5,97.3865994 L337.075777,97.3865994 L337.075777,93.5921635 L334.124549,93.5921635 L334.124549,97.3865994 L331.679246,97.3865994 L331.679246,100.337827 L334.124549,100.337827 L334.124549,108.242902 L337.075777,108.242902 L337.075777,100.337827 L339.5,100.337827 L339.5,97.3865994 Z" id="Creative-Development" fill="#45494B"></path>
            </g>
        </g>
    </g>
</svg>