<?xml version="1.0" encoding="UTF-8"?>
<svg width="420px" height="73px" viewBox="0 0 420 73" version="1.1" xmlns="http://www.w3.org/2000/svg" xmlns:xlink="http://www.w3.org/1999/xlink">
    <!-- Generator: Sketch 46 (44423) - http://www.bohemiancoding.com/sketch -->
    <title>Light logo</title>
    <desc>Created with Sketch.</desc>
    <defs></defs>
    <g id="Logo" stroke="none" stroke-width="1" fill="none" fill-rule="evenodd">
        <g id="Light-logo" fill="#038CCF">
            <g id="Logo/light">
                <g id="Logo-(light)">
                    <g id="CALSTATE-Moving-&amp;-Storage">
                        <g id="_лой_1" transform="translate(0.000000, -0.000000)">
                            <g id="Group-2">
                                <g id="Group" transform="translate(0.000000, 0.000000)">
                                    <path d="M15.5,36.525 C15.5,24.225 23,15.125 35.5,15.125 C41,15.125 46,17.425 49.8,21.225 C50.5,21.825 51.7,21.825 52.5,21.225 L60.3,13.525 C60.9,12.925 60.9,11.525 60.5,10.825 C54.2,4.725 45.1,0.525 35.5,0.525 C14.8,0.525 0,15.425 0,36.525 C0,58.525 15.9,72.525 35.5,72.525 C45.1,72.525 54.2,68.325 60.5,62.325 C61,61.825 60.8,60.425 60.5,59.725 L52.9,52.125 C51.9,51.325 50.5,51.225 49.8,51.825 C46,55.625 41,57.925 35.5,57.925 C24.5,57.925 15.5,49.725 15.5,36.525 Z M104.3,70.425 C104.5,71.025 105.4,71.525 106.2,71.525 L118.3,71.525 C119.8,71.525 120.6,70.325 120.1,69.125 L93.6,1.125 C92.9,-0.375 90.4,-0.375 89.7,1.125 C81.1,23.125 71.8,47.125 63.2,69.125 C62.7,70.325 63.4,71.525 65.1,71.525 L77,71.525 C78,71.525 78.9,71.025 79.1,70.325 L81.6,63.525 L101.6,63.525 L104.3,70.425 Z M89.2,41.025 C90.2,38.025 91,35.025 91.7,31.325 C92.3,34.825 93.1,37.725 94.1,41.025 L97.6,51.425 L85.6,51.425 L89.2,41.025 Z M140.8,56.925 L140.8,3.325 C140.8,2.425 139.9,1.525 138.7,1.525 L127.5,1.525 C126.3,1.525 125.4,2.425 125.4,3.325 L125.4,69.825 C125.4,70.625 126.3,71.525 127.5,71.525 L163.3,71.525 C164.6,71.525 165.5,70.625 165.5,69.825 L165.5,58.725 C165.5,57.825 164.6,56.925 163.3,56.925 L140.8,56.925 Z M217,51.125 C217,42.525 212.8,35.325 204.9,31.725 C199.8,29.325 194.6,29.325 194.1,29.325 C190.2,29.325 186.5,27.025 186.5,22.625 C186.5,17.625 190,15.125 194.1,15.125 C198,15.125 201.3,17.225 201.5,21.425 C201.5,22.125 202.6,23.125 203.7,23.125 L214.6,23.125 C215.9,23.125 216.8,22.125 216.8,21.425 C216.6,9.025 206.7,0.525 194.1,0.525 C182.4,0.525 171.2,8.925 171.2,22.625 C171.2,31.225 175.6,37.625 183.2,41.225 C188.5,43.625 193.5,43.625 194.1,43.625 C197.6,43.925 201.7,46.625 201.7,51.125 C201.7,55.225 198.2,57.925 194.1,57.925 C190.2,57.925 186.7,55.725 186.5,51.425 C186.5,50.525 185.5,49.625 184.4,49.625 L173.3,49.625 C172.1,49.625 171.2,50.525 171.2,51.425 C171.4,64.825 181.4,72.225 194.1,72.525 C205.9,72.525 217,64.825 217,51.125 Z M265.4,3.325 C265.4,2.425 264.5,1.525 263.2,1.525 L224.2,1.525 C223,1.525 222.1,2.425 222.1,3.325 L222.1,13.425 C222.1,14.225 223,15.125 224.2,15.125 L236.1,15.125 L236.1,69.825 C236.1,70.625 237,71.525 238.2,71.525 L249.2,71.525 C250.5,71.525 251.4,70.625 251.4,69.825 L251.4,15.125 L263.2,15.125 C264.5,15.125 265.4,14.225 265.4,13.425 L265.4,3.325 Z M306.5,70.425 C306.7,71.025 307.6,71.525 308.4,71.525 L320.5,71.525 C322,71.525 322.8,70.325 322.3,69.125 L295.8,1.125 C295.1,-0.375 292.6,-0.375 291.9,1.125 C283.3,23.125 274,47.125 265.4,69.125 C264.9,70.325 265.6,71.525 267.3,71.525 L279.2,71.525 C280.2,71.525 281.1,71.025 281.3,70.325 L283.8,63.525 L303.8,63.525 L306.5,70.425 Z M291.4,41.025 C292.4,38.025 293.2,35.025 293.9,31.325 C294.5,34.825 295.3,37.725 296.3,41.025 L299.8,51.425 L287.8,51.425 L291.4,41.025 Z M365.2,3.325 C365.2,2.425 364.3,1.525 363,1.525 L324,1.525 C322.8,1.525 321.9,2.425 321.9,3.325 L321.9,13.425 C321.9,14.225 322.8,15.125 324,15.125 L335.9,15.125 L335.9,69.825 C335.9,70.625 336.8,71.525 338,71.525 L349,71.525 C350.3,71.525 351.2,70.625 351.2,69.825 L351.2,15.125 L363,15.125 C364.3,15.125 365.2,14.225 365.2,13.425 L365.2,3.325 Z M416.2,15.825 C417.4,15.825 418.3,14.925 418.3,14.025 L418.3,3.325 C418.3,2.425 417.4,1.525 416.2,1.525 L372.7,1.525 C371.4,1.525 370.6,2.425 370.6,3.325 L370.6,69.825 C370.6,70.625 371.4,71.525 372.7,71.525 L417,71.525 C418.3,71.525 419.2,70.625 419.2,69.825 L419.2,58.725 C419.2,57.825 418.3,56.925 417,56.925 L385.9,56.925 L385.9,43.525 L411.5,43.525 C412.7,43.525 413.5,42.625 413.5,41.825 L413.5,31.025 C413.5,30.125 412.7,29.225 411.5,29.225 L385.9,29.225 L385.9,15.825 L416.2,15.825 Z" id="CALSTATE"></path>
                                </g>
                            </g>
                        </g>
                    </g>
                </g>
            </g>
        </g>
    </g>
</svg>