<svg width="520" height="183" viewBox="0 0 520 183" xmlns="http://www.w3.org/2000/svg"><title>Dark</title><g fill="none" fill-rule="evenodd"><path d="M85.936 75.312c-.337-.282-.587-.564-.927-.862l-.9-.816c-1.162-1.187-2.368-2.238-3.578-3.359-.673-.625-2.898-2.807-3.613-3.41l-5.404-5.048c-.887-.823-3.896-3.538-4.462-4.19-.878-.99-1.405-.757-1.398-2.057.013-1.724.137-3.462.227-5.18.116-2.223.155-4.522.234-6.73.083-2.28.362-4.726.366-6.979-.004-1.163.122-2.327.158-3.492.056-1.058.034-2.194.093-3.321.12-2.283.994-22.169 1.086-26.495L12.507.475a16.408 16.408 0 0 0-.167 1.71c-.067.884.275.662.64 1.177 1.217 1.69.857 1.801 1.115 4.19.18 1.635.067 1.597-.402 3.008a4.62 4.62 0 0 1-.534 1.383 2.02 2.02 0 0 0-.536 1.346c-.066.618-.076 1.24-.028 1.86.067.431.397.993.203 1.43-.408.922-2.835 4.324-4.01 7.109-.362.851-1.013 1.825-.744 2.848.153.577.412.855.222 1.52a1.81 1.81 0 0 0 .165 1.452c1.194 2.982 1.395 2.265 2.284 3.133.32.286.58.635.763 1.024.171.424.385.83.638 1.212 2.005 3.008 1.942 1.891 3.095 5.822.316 1.058-.168 1.565-.606 2.758-.476 1.284-.415 1.836-.49 3.288-.077 1.452-.18 1.723.486 3.014.178.343.448.792.604 1.174.155.382-.157.887-.306 1.314-.384 1.094.14 1.686.717 2.526.497.721.939 1.468 1.448 2.19 2.278 3.258 1.722 2.965 5.425 5.51.532.364.765 1.987.896 2.68.275 1.455.951 3.035.495 4.5-.584 1.872.154 1.256 1.513 1.734 1.03.367 1.925 2.195 3.141 2.356 1.423.192 2.39.507 2.22-1.067-.08-.752.13-.851.425-1.344.245-.394.38-.883.866-.947.59 3.536.574 3.604 2.402 6.656a3.38 3.38 0 0 1 .298 2.553l-1.765-.426c-1.822-.669-.984-3.642-2.47-4.025l-.282 1.88c.04.338.044.68.012 1.018-.091.332-.35.274-.44.603-.09.328.388 1.167.367 1.71a6.198 6.198 0 0 0 .046 1.845c.197 1.23.488 4.173 1.108 5.181.752 1.235 2.39 2.296 3.764 2.787 1.374.491 2.3.251 3.263 1.208.387.395.347 1.157.406 1.754.077.78.229 1.085-.184 1.803a7.758 7.758 0 0 1-.822 1.344c-.502.465-.787.06-1.187.934-.401.873.061 2.723.215 3.67.274 1.641.109 1.515 1.558 2.745.781.676 1.52 1.365 2.342 2.042.504.433.4.79.677 1.418.25.44.563.843.929 1.195.644.79.726 2.181 1.335 2.941.307.382.733.807 1.062 1.154l3.09 3.35a5411.15 5411.15 0 0 1-13.063-1.661 8339.54 8339.54 0 0 0 19.154 13.291c.12 1.24.146 2.488.078 3.733-.135.859-.944 1.577-.632 2.484.212.62 1.386 1.044 1.941 1.346 2.143 1.165 2.767 1.726 4.836 1.18.803-.21.944-.024 1.752.128 1.213.23 2.48.565 3.69.84 2.582.587.883.453 3.125.51l5.384 3.714.21.275c-.218 5.564-.44 11.126-.666 16.684-.226 5.56-.45 11.14-.67 16.742 3.897-3.64 7.668-7.168 11.313-10.585a3369.42 3369.42 0 0 0 10.247-9.628l4.235 2.662.023.021a12.383 12.383 0 0 1 2.106 2.814c.41 1.253.739 2.53.983 3.825.328 1.526.404 2.481 1.028 3.754l.922.154a5.527 5.527 0 0 0-.286 1.567c.152.474.392.915.707 1.302.496.587.559.55 1.479.439.587-.07 1.18-.109 1.785-.187 1.73-.222 5.375-.63 7.063-.752 3.511-.255 7.145-.752 10.672-1.157 1.503-.173 3.872-.378 5.25-.574 1.377-.197 8.164-.967 8.921-.932.643.051 1.29.043 1.932-.024 1.236-.224 1.298-1.416 1.644-2.41.174-.512.495-1.195.152-1.644-.275-.368-2.173-1.069-2.69-1.482-1.241-.992-.535-1.691-.334-3.116l-28.47-12.47 12.314 12.99a2.243 2.243 0 0 1 3.123.077 2.223 2.223 0 0 1 .001 3.113c-.847.866-2.233.9-3.124.077a2.223 2.223 0 0 1-.156-3.11l-17.476-15.09 4.242 9.319c1.813 3.977 3.587 7.864 5.322 11.664a2939.481 2939.481 0 0 1-9.959-6.906l-11.032-7.706c-2.725 2.414-5.494 4.87-8.307 7.367a5551.72 5551.72 0 0 1-8.817 7.813c.058-4.478.117-8.987.178-13.527l.186-13.814a6450.29 6450.29 0 0 1-14.343-10.807 6930.785 6930.785 0 0 1-16.314-12.338c5.769.858 11.317 1.676 16.645 2.454l6.824 1-23.819-40.713a2.243 2.243 0 0 1-3.032-.793 2.224 2.224 0 0 1 .739-3.035 2.243 2.243 0 0 1 3.06.682 2.224 2.224 0 0 1-.627 3.06L75.77 119.85l1.976.286L51.944 44.85a2.232 2.232 0 0 1-2.82-1.37 2.218 2.218 0 0 1 1.346-2.823 2.232 2.232 0 0 1 2.847 1.316 2.218 2.218 0 0 1-1.294 2.848l27.147 70.346c.197-2.933.396-5.875.597-8.824.316-4.696.62-9.421.947-14.182 2.763 5.58 5.454 10.993 8.07 16.24l4.8 9.652 1.625-19.476a2.224 2.224 0 0 1-1.99-2.384 2.225 2.225 0 0 1 2.338-2.043 2.225 2.225 0 0 1 2.113 2.277 2.224 2.224 0 0 1-2.229 2.162l.527 23.907 7.124-11.731a2.205 2.205 0 0 1-.802-2.963 2.22 2.22 0 0 1 2.943-.902 2.206 2.206 0 0 1 1.01 2.9 2.22 2.22 0 0 1-2.873 1.106l-5.454 12.725 5.517 1.102 22.408-12.028-.335-.314c-.566-.57-1.084-1.04-1.765-1.662l-3.617-3.406c-.315-.309-.609-.544-.943-.862-.334-.319-.57-.571-.87-.86l-2.724-2.517a5.565 5.565 0 0 0-.435-.429c-.391-.313-4.87-4.48-5.404-5.049-.653-.688-3.281-3.107-4.06-3.815-.616-.557-1.202-1.14-1.826-1.693-.624-.554-1.166-1.115-1.753-1.67-1.169-1.061-2.993-2.694-4.09-3.796-1.594-1.605-3.29-3.02-4.889-4.615l-.942-.863c-1.84-1.662-3.572-3.338-5.391-5.06-.331-.31-.582-.584-.88-.831l.019.05zm82.879 74.064l.025.001c1.012-4.431 3.454-7.562 6.328-7.565 3.13-.023 5.805 3.63 6.695 8.7l42.671-1.578-3.7 10.816-5.283.188a7.758 7.758 0 0 1-3.333 3.749c-1.34.253-2.707.32-4.066.203a7.307 7.307 0 0 1-3.5-3.413l-19.656.94a10.566 10.566 0 0 1-3.505 4.546c-1.5 1.002-5.66.784-7.299.207-2.568-.741-4.68-3.985-5.494-8.276l-.368-.152-36.639-12.427 37.124 4.061zm-16.637-37.563l-.913 17.408-45.318 7.9 31.997-11.623-31.035 8.959 39.525-15.264-44.144 14.49 49.888-21.87zm-1.145 22.326l-.05 4.835-31.719-.831 31.768-3.996v-.008zm.356-34.341l6.729 8.923.358.476.003.578.309 35.268-3.628-4.732-.241-29.938-6.37-8.446c-.206-1.395 1.382-2.488 2.849-2.137l-.009.008zm47.053 36.684l-.016 4.924-.015 5.211 9.567-.255 9.303-.248-.016-.171 5.35-.036-.021-3.089-5.638.037-.181-1.8-.484-4.789-8.807.104-9.037.104-.005.008zm-8.067-33.764l6.553 8.693.28.372 2.71 1.319-29.197-1.452-9.81-6.407 28.796 2.889 7.257 3.535-7.867-4.876-1.497-1.99c-.2-1.358 1.35-2.424 2.775-2.083zm-19.999 13.524l2.39 11.546-8.448-.617-.157-9.825 6.21-1.1.005-.004zm3.356-.357l3.308 11.857 28.71.07-3.043-10.778-28.987-1.15.012.001zm33.625 18.2c1.457-.01 2.644.339 2.646.775.002.437-1.176.803-2.633.81-1.456.006-2.64-.338-2.646-.775-.006-.437 1.177-.803 2.633-.81zm-33.777-2.007l.258 3.597c7.828 1.869 19.01 1.615 19.076 10.841l3.794-.026-.096-10.108-23.053-4.305.021.001zm8.17 11.284l.02 3.09 7.709-.054-.022-3.089-7.708.053zm30.878 9.316l1.67-.012 1.585-.013c.004.395.013.79.021 1.186.009.395.013.79.022 1.19l-1.594.07-1.672.074c-.006-.418-.01-.834-.014-1.247-.003-.413-.008-.83-.014-1.248h-.004zm-37.018-2.983c1.457-.011 2.657 2.633 2.682 5.897.025 3.264-1.144 5.925-2.593 5.936-1.448.011-2.657-2.633-2.681-5.901-.025-3.268 1.144-5.925 2.593-5.936v.004zm-.463-3.104c-2.228.016-4.012 3.725-3.976 8.29.021 3.023.834 5.664 2.031 7.094a15.095 15.095 0 0 1-1.028-5.62c-.031-4.573 1.59-8.274 3.622-8.288 1.36-.008 2.559 1.634 3.215 4.084-.568-3.247-2.09-5.575-3.88-5.565l.016.005zm25.264-9l1.6-.02c.02 1.237.043 2.485.066 3.744.023 1.259.045 2.568.065 3.927l-1.67.04c-.012-1.33-.022-2.642-.032-3.937-.01-1.294-.02-2.551-.032-3.771l.003.017zm3.19-.04l1.582-.022.133 3.748c.045 1.268.092 2.57.142 3.906l-1.671.04-.108-3.916c-.035-1.287-.069-2.536-.1-3.745l.022-.012zm3.156-.043l1.57-.022.2 3.726c.068 1.259.139 2.555.214 3.89l-1.633.038-.176-3.895c-.058-1.28-.113-2.53-.166-3.75l-.01.013zm3.13-.04l1.554-.022a17867.113 17867.113 0 0 1 .546 7.572l-1.621.04c-.086-1.31-.164-2.603-.248-3.879a336.187 336.187 0 0 1-.222-3.715l-.009.004zm3.098-.041l1.536-.02a11453.386 11453.386 0 0 0 .682 7.534l-1.609.04-.31-3.856-.3-3.694.001-.004zm-28.038 16.082l2.061-.012 1.958-.014.023 1.464.023 1.468-1.965.088-2.066.092-.019-1.547-.015-1.539zm31.822-.876l1.464-.01 1.398-.01c.006.37.016.74.026 1.11.01.371.015.746.025 1.116l-1.401.064-1.468.064-.022-1.169c-.007-.388-.013-.778-.018-1.169l-.004.004zm-26.714.84l1.811-.013 1.724-.013.028 1.373c.01.457.023.92.032 1.377l-1.731.08-1.815.08-.024-1.448a148.8 148.8 0 0 0-.03-1.415l.005-.02z" fill="#FFF"/><path d="M115.5 47.525c0-12.3 7.5-21.4 20-21.4 5.5 0 10.5 2.3 14.3 6.1.7.6 1.9.6 2.7 0l7.8-7.7c.6-.6.6-2 .2-2.7-6.3-6.1-15.4-10.3-25-10.3-20.7 0-35.5 14.9-35.5 36 0 22 15.9 36 35.5 36 9.6 0 18.7-4.2 25-10.2.5-.5.3-1.9 0-2.6l-7.6-7.6c-1-.8-2.4-.9-3.1-.3-3.8 3.8-8.8 6.1-14.3 6.1-11 0-20-8.2-20-21.4zm88.8 33.9c.2.6 1.1 1.1 1.9 1.1h12.1c1.5 0 2.3-1.2 1.8-2.4l-26.5-68c-.7-1.5-3.2-1.5-3.9 0-8.6 22-17.9 46-26.5 68-.5 1.2.2 2.4 1.9 2.4H177c1 0 1.9-.5 2.1-1.2l2.5-6.8h20l2.7 6.9zm-15.1-29.4c1-3 1.8-6 2.5-9.7.6 3.5 1.4 6.4 2.4 9.7l3.5 10.4h-12l3.6-10.4zm51.6 15.9v-53.6c0-.9-.9-1.8-2.1-1.8h-11.2c-1.2 0-2.1.9-2.1 1.8v66.5c0 .8.9 1.7 2.1 1.7h35.8c1.3 0 2.2-.9 2.2-1.7v-11.1c0-.9-.9-1.8-2.2-1.8h-22.5zm76.2-5.8c0-8.6-4.2-15.8-12.1-19.4-5.1-2.4-10.3-2.4-10.8-2.4-3.9 0-7.6-2.3-7.6-6.7 0-5 3.5-7.5 7.6-7.5 3.9 0 7.2 2.1 7.4 6.3 0 .7 1.1 1.7 2.2 1.7h10.9c1.3 0 2.2-1 2.2-1.7-.2-12.4-10.1-20.9-22.7-20.9-11.7 0-22.9 8.4-22.9 22.1 0 8.6 4.4 15 12 18.6 5.3 2.4 10.3 2.4 10.9 2.4 3.5.3 7.6 3 7.6 7.5 0 4.1-3.5 6.8-7.6 6.8-3.9 0-7.4-2.2-7.6-6.5 0-.9-1-1.8-2.1-1.8h-11.1c-1.2 0-2.1.9-2.1 1.8.2 13.4 10.2 20.8 22.9 21.1 11.8 0 22.9-7.7 22.9-21.4zm48.4-47.8c0-.9-.9-1.8-2.2-1.8h-39c-1.2 0-2.1.9-2.1 1.8v10.1c0 .8.9 1.7 2.1 1.7h11.9v54.7c0 .8.9 1.7 2.1 1.7h11c1.3 0 2.2-.9 2.2-1.7v-54.7h11.8c1.3 0 2.2-.9 2.2-1.7v-10.1zm41.1 67.1c.2.6 1.1 1.1 1.9 1.1h12.1c1.5 0 2.3-1.2 1.8-2.4l-26.5-68c-.7-1.5-3.2-1.5-3.9 0-8.6 22-17.9 46-26.5 68-.5 1.2.2 2.4 1.9 2.4h11.9c1 0 1.9-.5 2.1-1.2l2.5-6.8h20l2.7 6.9zm-15.1-29.4c1-3 1.8-6 2.5-9.7.6 3.5 1.4 6.4 2.4 9.7l3.5 10.4h-12l3.6-10.4zm73.8-37.7c0-.9-.9-1.8-2.2-1.8h-39c-1.2 0-2.1.9-2.1 1.8v10.1c0 .8.9 1.7 2.1 1.7h11.9v54.7c0 .8.9 1.7 2.1 1.7h11c1.3 0 2.2-.9 2.2-1.7v-54.7H463c1.3 0 2.2-.9 2.2-1.7v-10.1zm51 12.5c1.2 0 2.1-.9 2.1-1.8v-10.7c0-.9-.9-1.8-2.1-1.8h-43.5c-1.3 0-2.1.9-2.1 1.8v66.5c0 .8.8 1.7 2.1 1.7H517c1.3 0 2.2-.9 2.2-1.7v-11.1c0-.9-.9-1.8-2.2-1.8h-31.1v-13.4h25.6c1.2 0 2-.9 2-1.7v-10.8c0-.9-.8-1.8-2-1.8h-25.6v-13.4h30.3z" fill="#038CCF"/><path d="M225 122.91V97.433h7.698l4.622 17.377 4.57-17.377h7.716v25.475h-4.779v-20.053l-5.057 20.053h-4.952l-5.04-20.053v20.053H225zm28.245-9.489c0-1.622.4-3.191 1.2-4.709.799-1.518 1.931-2.676 3.397-3.475 1.465-.8 3.101-1.2 4.909-1.2 2.791 0 5.08.907 6.863 2.72 1.784 1.813 2.677 4.104 2.677 6.873 0 2.792-.901 5.106-2.703 6.942-1.801 1.836-4.069 2.754-6.803 2.754-1.691 0-3.304-.382-4.84-1.147-1.534-.764-2.701-1.885-3.5-3.362-.8-1.477-1.2-3.276-1.2-5.396zm5.005.26c0 1.831.434 3.233 1.303 4.206.869.973 1.94 1.46 3.215 1.46 1.274 0 2.343-.487 3.206-1.46s1.295-2.386 1.295-4.24c0-1.807-.432-3.197-1.295-4.17-.863-.973-1.932-1.46-3.206-1.46s-2.346.487-3.215 1.46c-.869.973-1.303 2.375-1.303 4.205zm22.632 9.228l-7.437-18.454h5.126l3.476 9.418 1.008 3.145c.266-.8.434-1.326.504-1.581.162-.521.335-1.043.52-1.564l3.511-9.418h5.022l-7.333 18.454h-4.397zm14.414-20.957v-4.518h4.883v4.518h-4.883zm0 20.957v-18.454h4.883v18.454h-4.883zm26.368 0h-4.883v-9.418c0-1.993-.104-3.282-.312-3.867-.209-.585-.548-1.04-1.017-1.364-.47-.324-1.034-.486-1.694-.486-.846 0-1.605.231-2.277.695a3.502 3.502 0 0 0-1.381 1.842c-.25.764-.374 2.178-.374 4.24v8.358h-4.883v-18.454h4.536v2.71c1.61-2.085 3.637-3.127 6.082-3.127 1.077 0 2.062.194 2.954.582.892.388 1.567.883 2.024 1.486.458.602.776 1.285.956 2.05.18.765.27 1.86.27 3.284v11.47zm4.196 1.216l5.578.678c.093.649.307 1.095.643 1.338.463.348 1.193.522 2.19.522 1.274 0 2.23-.192 2.867-.574.428-.255.753-.666.973-1.234.15-.405.226-1.152.226-2.241v-2.694c-1.46 1.993-3.302 2.99-5.526 2.99-2.48 0-4.443-1.05-5.891-3.146-1.135-1.657-1.703-3.719-1.703-6.186 0-3.093.744-5.457 2.233-7.09 1.489-1.634 3.34-2.45 5.552-2.45 2.282 0 4.165 1.002 5.647 3.006v-2.59h4.57v16.561c0 2.178-.179 3.806-.538 4.883-.36 1.077-.863 1.923-1.512 2.537-.649.614-1.515 1.095-2.598 1.442-1.083.348-2.453.522-4.11.522-3.127 0-5.346-.536-6.655-1.608-1.309-1.071-1.963-2.43-1.963-4.075 0-.162.005-.359.017-.59zm4.362-10.825c0 1.957.379 3.391 1.138 4.3.759.91 1.694 1.365 2.806 1.365 1.193 0 2.201-.467 3.024-1.4.822-.932 1.234-2.313 1.234-4.144 0-1.911-.394-3.33-1.182-4.257-.788-.927-1.784-1.39-2.989-1.39-1.17 0-2.134.454-2.893 1.364-.759.91-1.138 2.296-1.138 4.162zm49.678 6.499l-2.954 3.77c-1.448-.706-2.838-1.68-4.17-2.919-1.031.927-2.126 1.61-3.284 2.05-1.159.44-2.537.66-4.136.66-3.174 0-5.56-.891-7.16-2.675-1.239-1.379-1.859-2.966-1.859-4.761 0-1.634.487-3.102 1.46-4.406.973-1.303 2.427-2.435 4.362-3.397-.87-1.03-1.524-2.013-1.964-2.945-.44-.933-.66-1.816-.66-2.65 0-1.54.617-2.847 1.85-3.919C362.62 97.536 364.377 97 366.66 97c2.201 0 3.922.562 5.161 1.686 1.24 1.123 1.86 2.496 1.86 4.118 0 1.03-.307 2.01-.921 2.937-.614.926-1.854 1.975-3.72 3.145l3.546 4.674c.417-.741.776-1.708 1.077-2.902l4.414 1.008c-.44 1.564-.823 2.708-1.147 3.432-.324.724-.672 1.33-1.043 1.816.545.51 1.249 1.069 2.112 1.677.863.608 1.497 1.01 1.902 1.208zm-13.293-13.85l1.32-1.008c.974-.753 1.46-1.5 1.46-2.241 0-.626-.234-1.159-.703-1.599-.47-.44-1.104-.66-1.903-.66-.776 0-1.385.194-1.825.582-.44.388-.66.837-.66 1.346 0 .603.37 1.333 1.112 2.19l1.2 1.39zm-1.911 5.3c-1.124.568-1.964 1.251-2.52 2.05-.556.8-.834 1.617-.834 2.45 0 1.055.344 1.915 1.034 2.581.69.666 1.613 1 2.771 1 .765 0 1.5-.151 2.207-.452.707-.302 1.477-.8 2.311-1.495l-4.97-6.134zm26.341 3.371l5.005-.486c.301 1.68.912 2.913 1.833 3.701.921.788 2.163 1.182 3.727 1.182 1.657 0 2.905-.35 3.745-1.052.84-.7 1.26-1.52 1.26-2.459 0-.602-.177-1.115-.53-1.537-.353-.423-.97-.791-1.85-1.104-.603-.208-1.976-.579-4.119-1.112-2.757-.683-4.692-1.523-5.804-2.52-1.564-1.401-2.346-3.11-2.346-5.126 0-1.297.368-2.51 1.104-3.64.735-1.13 1.795-1.99 3.18-2.58 1.384-.592 3.055-.887 5.013-.887 3.197 0 5.604.7 7.22 2.103 1.616 1.401 2.465 3.272 2.546 5.612l-5.144.226c-.22-1.309-.692-2.25-1.416-2.823-.724-.574-1.81-.86-3.258-.86-1.495 0-2.665.306-3.51.92-.545.394-.817.921-.817 1.582 0 .602.255 1.118.764 1.546.65.545 2.225 1.112 4.727 1.703 2.502.591 4.353 1.202 5.552 1.833 1.199.632 2.137 1.495 2.815 2.59.678 1.094 1.017 2.447 1.017 4.057 0 1.46-.406 2.827-1.217 4.101-.81 1.274-1.958 2.221-3.44 2.841-1.483.62-3.331.93-5.544.93-3.22 0-5.694-.744-7.42-2.233s-2.757-3.658-3.093-6.508zm33.163-10.165v3.892h-3.336v7.438c0 1.506.032 2.383.095 2.632.064.25.209.455.435.617.226.162.5.243.825.243.452 0 1.107-.156 1.964-.469l.417 3.788c-1.135.487-2.421.73-3.858.73-.88 0-1.674-.148-2.38-.443-.707-.295-1.225-.678-1.556-1.147-.33-.47-.559-1.103-.686-1.903-.104-.567-.156-1.714-.156-3.44v-8.046h-2.242v-3.892h2.242v-3.667l4.9-2.85v6.517h3.336zm1.954 8.966c0-1.622.4-3.191 1.2-4.709.799-1.518 1.931-2.676 3.396-3.475 1.466-.8 3.102-1.2 4.91-1.2 2.791 0 5.08.907 6.863 2.72 1.784 1.813 2.676 4.104 2.676 6.873 0 2.792-.9 5.106-2.702 6.942-1.801 1.836-4.069 2.754-6.803 2.754-1.691 0-3.304-.382-4.84-1.147-1.534-.764-2.701-1.885-3.5-3.362-.8-1.477-1.2-3.276-1.2-5.396zm5.005.26c0 1.831.434 3.233 1.303 4.206.869.973 1.94 1.46 3.215 1.46 1.274 0 2.343-.487 3.206-1.46s1.294-2.386 1.294-4.24c0-1.807-.431-3.197-1.294-4.17-.863-.973-1.932-1.46-3.206-1.46-1.275 0-2.346.487-3.215 1.46-.869.973-1.303 2.375-1.303 4.205zm22.233 9.228h-4.883v-18.454h4.535v2.624c.776-1.24 1.474-2.057 2.094-2.45.62-.394 1.324-.591 2.111-.591 1.112 0 2.184.307 3.215.92l-1.512 4.258c-.822-.533-1.587-.8-2.293-.8-.684 0-1.263.189-1.738.565-.475.377-.849 1.058-1.121 2.042-.272.985-.408 3.047-.408 6.186v5.7zm12.519-12.824l-4.431-.8c.498-1.784 1.355-3.104 2.572-3.961 1.216-.858 3.023-1.286 5.421-1.286 2.178 0 3.8.257 4.866.773 1.065.515 1.816 1.17 2.25 1.964.434.793.652 2.25.652 4.37l-.052 5.7c0 1.621.078 2.817.234 3.588.156.77.449 1.596.878 2.476h-4.831a17.959 17.959 0 0 1-.47-1.442 8.778 8.778 0 0 0-.173-.574c-.834.811-1.726 1.42-2.676 1.825a7.665 7.665 0 0 1-3.041.608c-1.9 0-3.397-.515-4.492-1.546-1.095-1.031-1.642-2.335-1.642-3.91 0-1.043.249-1.973.747-2.79a4.88 4.88 0 0 1 2.094-1.876c.898-.434 2.192-.814 3.884-1.138 2.282-.429 3.863-.828 4.744-1.2v-.486c0-.938-.232-1.607-.695-2.007-.464-.4-1.339-.6-2.624-.6-.87 0-1.547.172-2.034.513-.486.342-.88.942-1.181 1.799zm6.534 3.962c-.626.208-1.616.457-2.972.747-1.355.29-2.242.573-2.659.851-.637.452-.955 1.026-.955 1.72 0 .684.255 1.275.764 1.773.51.498 1.159.747 1.947.747.88 0 1.72-.29 2.52-.868.59-.44.978-.98 1.163-1.616.128-.417.192-1.211.192-2.381v-.973zm8.852 10.078l5.578.678c.093.649.307 1.095.643 1.338.464.348 1.193.522 2.19.522 1.274 0 2.23-.192 2.867-.574.429-.255.753-.666.973-1.234.15-.405.226-1.152.226-2.241v-2.694c-1.46 1.993-3.302 2.99-5.526 2.99-2.48 0-4.443-1.05-5.89-3.146-1.136-1.657-1.704-3.719-1.704-6.186 0-3.093.745-5.457 2.233-7.09 1.489-1.634 3.34-2.45 5.552-2.45 2.282 0 4.165 1.002 5.648 3.006v-2.59h4.57v16.561c0 2.178-.18 3.806-.539 4.883-.359 1.077-.863 1.923-1.512 2.537-.648.614-1.514 1.095-2.598 1.442-1.083.348-2.453.522-4.11.522-3.127 0-5.345-.536-6.655-1.608-1.309-1.071-1.963-2.43-1.963-4.075 0-.162.006-.359.017-.59zm4.362-10.825c0 1.957.38 3.391 1.138 4.3.759.91 1.694 1.365 2.806 1.365 1.194 0 2.201-.467 3.024-1.4.823-.932 1.234-2.313 1.234-4.144 0-1.911-.394-3.33-1.182-4.257-.788-.927-1.784-1.39-2.989-1.39-1.17 0-2.134.454-2.893 1.364-.759.91-1.138 2.296-1.138 4.162zm28.21 3.736l4.866.816c-.626 1.784-1.613 3.143-2.963 4.075-1.35.933-3.038 1.4-5.065 1.4-3.21 0-5.584-1.05-7.125-3.146-1.216-1.68-1.824-3.8-1.824-6.36 0-3.058.799-5.454 2.398-7.185 1.598-1.732 3.62-2.598 6.064-2.598 2.746 0 4.912.906 6.5 2.72 1.586 1.812 2.345 4.59 2.276 8.331h-12.234c.035 1.449.429 2.575 1.182 3.38.753.805 1.691 1.208 2.815 1.208.765 0 1.407-.209 1.929-.626.521-.417.915-1.089 1.181-2.015zm.278-4.935c-.034-1.414-.4-2.488-1.094-3.224-.695-.735-1.541-1.103-2.537-1.103-1.066 0-1.947.388-2.642 1.164-.695.776-1.036 1.83-1.025 3.163h7.298z" fill="#FFF"/></g></svg>